<svg width="160" height="51" viewBox="0 0 160 51" fill="none" xmlns="http://www.w3.org/2000/svg">
<g clip-path="url(#clip0_4042_20)">
<path fill-rule="evenodd" clip-rule="evenodd" d="M41.8788 9.43244C41.3329 8.89002 41.3329 8.01107 41.8788 7.46918C42.4253 6.92676 43.3108 6.92676 43.8567 7.46918C44.4032 8.01107 44.4032 8.89002 43.8567 9.43244C43.3108 9.97432 42.4253 9.97432 41.8788 9.43244ZM25.6909 40.7902C27.001 40.7902 28.0631 41.8444 28.0631 43.1448C28.0631 44.4452 27.001 45.4994 25.6909 45.4994C24.3807 45.4994 23.3187 44.4452 23.3187 43.1448C23.3181 41.8444 24.3807 40.7902 25.6909 40.7902ZM19.5773 44.0238C20.6626 45.1011 20.6626 46.8477 19.5773 47.9256C18.4919 49.0029 16.7317 49.0029 15.6463 47.9256C14.561 46.8482 14.561 45.1011 15.6463 44.0238C16.7317 42.9459 18.4919 42.9459 19.5773 44.0238ZM14.7982 36.3121C15.7249 37.2314 15.7249 38.7227 14.7982 39.6425C13.8715 40.5623 12.3696 40.5623 11.443 39.6425C10.5163 38.7232 10.5163 37.2319 11.443 36.3121C12.3696 35.3923 13.8715 35.3923 14.7982 36.3121ZM9.5024 41.5681C10.0489 42.11 10.0489 42.9889 9.5024 43.5314C8.95593 44.0732 8.07041 44.0732 7.52447 43.5314C6.97854 42.9895 6.97854 42.11 7.52447 41.5681C8.07095 41.0257 8.95647 41.0257 9.5024 41.5681ZM25.6909 48.2234C26.4632 48.2234 27.0893 48.8448 27.0893 49.612C27.0893 50.3786 26.4632 51 25.6909 51C24.9186 51 24.2925 50.3786 24.2925 49.612C24.2919 48.8454 24.918 48.2234 25.6909 48.2234ZM34.5639 42.8889C36.0988 42.8889 37.3434 44.1243 37.3434 45.6478C37.3434 47.1713 36.0988 48.4067 34.5639 48.4067C33.029 48.4067 31.7844 47.1713 31.7844 45.6478C31.7844 44.1243 33.0285 42.8889 34.5639 42.8889ZM36.5836 36.3121C37.5103 35.3923 39.0121 35.3923 39.9388 36.3121C40.8655 37.2314 40.8655 38.7227 39.9388 39.6425C39.0121 40.5623 37.5103 40.5623 36.5836 39.6425C35.6569 38.7227 35.6569 37.2314 36.5836 36.3121ZM41.8788 41.5681C42.4253 41.0257 43.3108 41.0257 43.8567 41.5681C44.4032 42.11 44.4032 42.9889 43.8567 43.5314C43.3103 44.0732 42.4247 44.0732 41.8788 43.5314C41.3329 42.9889 41.3329 42.11 41.8788 41.5681ZM8.17169 34.3075C8.17169 35.831 6.92709 37.0664 5.39219 37.0664C3.85729 37.0664 2.61269 35.831 2.61269 34.3075C2.61269 32.784 3.85729 31.5486 5.39219 31.5486C6.92709 31.5486 8.17169 32.7835 8.17169 34.3075ZM10.2861 25.5003C10.2861 26.8007 9.22402 27.8549 7.91389 27.8549C6.60375 27.8549 5.54167 26.8007 5.54167 25.5003C5.54167 24.1999 6.60375 23.1457 7.91389 23.1457C9.22402 23.1457 10.2861 24.1999 10.2861 25.5003ZM2.79737 25.5003C2.79737 26.2669 2.17128 26.8883 1.39896 26.8883C0.626092 26.8883 0 26.2669 0 25.5003C0 24.7337 0.626092 24.1122 1.39842 24.1122C2.17128 24.1117 2.79737 24.7331 2.79737 25.5003ZM7.02891 19.432C5.94354 20.5093 4.18387 20.5093 3.09796 19.432C2.01259 18.3547 2.01259 16.6076 3.09796 15.5302C4.18333 14.4529 5.94354 14.4529 7.02891 15.5302C8.11428 16.6076 8.11428 18.3547 7.02891 19.432ZM14.7982 14.6884C13.8715 15.6077 12.3696 15.6077 11.443 14.6884C10.5163 13.7686 10.5163 12.2779 11.443 11.3581C12.3696 10.4383 13.8715 10.4383 14.7982 11.3581C15.7243 12.2779 15.7243 13.7686 14.7982 14.6884ZM9.5024 9.43244C8.95593 9.97432 8.07041 9.97432 7.52447 9.43244C6.97854 8.89002 6.97854 8.01107 7.52447 7.46918C8.07095 6.92676 8.95647 6.92676 9.5024 7.46918C10.0489 8.01107 10.0489 8.89002 9.5024 9.43244ZM16.8178 8.11106C15.2829 8.11106 14.0383 6.87569 14.0383 5.35218C14.0383 3.82867 15.2829 2.5933 16.8178 2.5933C18.3527 2.5933 19.5973 3.82867 19.5973 5.35218C19.5973 6.87569 18.3527 8.11106 16.8178 8.11106ZM25.6909 10.2098C24.3807 10.2098 23.3187 9.15558 23.3187 7.85517C23.3187 6.55475 24.3807 5.50055 25.6909 5.50055C27.001 5.50055 28.0631 6.55475 28.0631 7.85517C28.0631 9.15558 27.001 10.2098 25.6909 10.2098ZM25.6909 2.77662C24.9186 2.77662 24.2925 2.15517 24.2925 1.38858C24.2919 0.621446 24.918 0 25.6909 0C26.4632 0 27.0893 0.621446 27.0893 1.38858C27.0893 2.15517 26.4632 2.77662 25.6909 2.77662ZM31.8039 6.97676C30.7186 5.89944 30.7186 4.15229 31.8039 3.07498C32.8893 1.99766 34.6495 1.99766 35.7349 3.07498C36.8203 4.15229 36.8203 5.89944 35.7349 6.97676C34.6495 8.05407 32.8899 8.05407 31.8039 6.97676ZM36.5836 14.6884C35.6569 13.7686 35.6569 12.2779 36.5836 11.3581C37.5103 10.4383 39.0121 10.4383 39.9388 11.3581C40.8655 12.2779 40.8655 13.7686 39.9388 14.6884C39.0121 15.6077 37.5097 15.6077 36.5836 14.6884Z" fill="#5CD1CB"/>
<path fill-rule="evenodd" clip-rule="evenodd" d="M160 9.60156V13.541H152.359V35.3744H148.13V13.5415H140.488V9.6021H160V9.60156ZM25.2484 36.1759C22.263 36.1759 19.7554 35.1696 17.7277 33.1563C15.6994 31.1436 14.686 28.6498 14.686 25.6726C14.686 22.6976 15.6994 20.2086 17.7277 18.2083C19.7554 16.2079 22.275 15.2075 25.2863 15.2075C27.7495 15.2075 29.8888 15.8994 31.7059 17.2826C33.5219 18.6663 34.7036 20.5059 35.2517 22.8025H31.1459C30.6232 21.6671 29.8401 20.7709 28.7942 20.1167C27.7495 19.463 26.5677 19.1351 25.2489 19.1351C24.079 19.1351 23.0099 19.4189 22.0394 19.9866C21.0688 20.5554 20.3041 21.3392 19.7441 22.3396C19.1846 23.34 18.9046 24.4571 18.9046 25.692C18.9046 27.5445 19.5144 29.1002 20.733 30.3598C21.9522 31.6194 23.4578 32.2489 25.2494 32.2489C26.5682 32.2489 27.7441 31.9161 28.7769 31.2484C29.8086 30.5818 30.5994 29.6314 31.1464 28.3966H35.3265C34.754 30.7426 33.5538 32.6263 31.7248 34.046C29.8958 35.4663 27.7365 36.1759 25.2484 36.1759ZM63.3008 25.7656C63.3008 28.7046 62.3242 31.1377 60.3712 33.0638C58.4171 34.99 55.9355 36.0275 52.9247 36.1759H48.9683C45.9576 36.0275 43.4754 34.99 41.5219 33.0638C39.5688 31.1377 38.5923 28.7051 38.5923 25.7656C38.5923 22.8266 39.5743 20.3694 41.5408 18.3932C43.5063 16.4176 45.982 15.3548 48.9683 15.2069H52.9247C55.9106 15.3548 58.3868 16.4106 60.3523 18.3744C62.3177 20.3387 63.3008 22.8019 63.3008 25.7656ZM42.6614 25.728C42.6614 27.5563 43.2517 29.0873 44.4341 30.3222C45.6158 31.5575 47.1399 32.2365 49.0063 32.3596V19.0232C47.1399 19.1469 45.6158 19.8377 44.4341 21.0972C43.2517 22.3568 42.6614 23.9013 42.6614 25.728ZM52.8879 32.3596C54.7543 32.2365 56.2778 31.5575 57.4601 30.3222C58.6414 29.0873 59.2328 27.5563 59.2328 25.728C59.2328 23.9013 58.6354 22.3568 57.4417 21.0972C56.2475 19.8377 54.7299 19.1469 52.8885 19.0232L52.8879 32.3596ZM86.8512 25.728C86.8512 26.0984 86.8263 26.5559 86.777 27.0988H70.4293C70.6779 28.7046 71.356 29.9765 72.4636 30.9151C73.5701 31.8538 74.9457 32.3225 76.5879 32.3225C77.3835 32.3225 78.1304 32.2059 78.8274 31.9709C79.5234 31.7366 80.1397 31.4027 80.6748 30.9705C81.2094 30.5383 81.6508 30.0136 82.0001 29.3959H86.3665C85.5698 31.5204 84.3014 33.1805 82.5596 34.3788C80.8172 35.5765 78.8279 36.1759 76.5879 36.1759C73.6259 36.1759 71.1567 35.1755 69.1793 33.1751C67.2008 31.1748 66.2119 28.6804 66.2119 25.6914C66.2119 22.7035 67.2008 20.2086 69.1793 18.2083C71.1567 16.2079 73.6259 15.2075 76.5879 15.2075C78.6032 15.2075 80.3948 15.6838 81.9622 16.6337C83.5301 17.5852 84.7368 18.8566 85.5828 20.45C86.4277 22.0423 86.8512 23.8024 86.8512 25.728ZM76.5873 18.912C75.0443 18.912 73.732 19.3442 72.6493 20.2081C71.5672 21.0731 70.8512 22.259 70.5035 23.7647H82.7074C82.4583 22.7525 82.0483 21.8816 81.4764 21.1526C80.9034 20.4242 80.2004 19.8689 79.3668 19.4856C78.5344 19.1039 77.6072 18.912 76.5873 18.912ZM100.696 15.2069C102.686 15.2069 104.478 15.658 106.071 16.5595C107.663 17.461 108.907 18.7141 109.802 20.3194C110.698 21.9251 111.146 23.7153 111.146 25.6909C111.146 28.7046 110.157 31.2054 108.178 33.1934C106.2 35.1814 103.705 36.1754 100.695 36.1754C98.1073 36.1754 95.8808 35.3728 94.0145 33.7675V42.8801H89.8712V25.0754C89.8723 20.6021 93.3905 15.2069 100.696 15.2069ZM95.6571 30.3775C96.9012 31.6247 98.4751 32.2483 100.379 32.2483C102.283 32.2483 103.856 31.6253 105.1 30.3775C106.345 29.1309 106.967 27.5681 106.967 25.6909C106.967 23.8142 106.345 22.252 105.1 21.0048C103.856 19.7581 102.288 19.134 100.398 19.134C99.1532 19.134 98.0212 19.4178 97.0014 19.9855C95.981 20.5543 95.1913 21.3381 94.6319 22.3385C94.0719 23.339 93.7919 24.4561 93.7919 25.6909C93.7913 27.5687 94.4125 29.1309 95.6571 30.3775ZM133.292 9.60156H136.371V35.3744H132.143V17.5186L118.53 35.3749H115.562V9.60156H119.828V27.2746L133.292 9.60156Z" fill="#05000F"/>
</g>
<defs>
<clipPath id="clip0_4042_20">
<rect width="160" height="51" fill="white"/>
</clipPath>
</defs>
</svg>
