<svg width="27" height="27" viewBox="0 0 27 27" fill="none" xmlns="http://www.w3.org/2000/svg">
<path d="M26.7525 13.8023C26.7525 9.96727 25.4601 6.72753 22.8754 4.08304C20.2907 1.43855 17.1244 0.117247 13.3765 0.119143C9.64161 0.119143 6.47532 1.44044 3.87767 4.08304C1.28002 6.72564 -0.0123394 9.96538 0.000584249 13.8023C0.000584249 17.6354 1.29295 20.8742 3.87767 23.5186C4.26849 23.9148 4.68086 24.2879 5.1128 24.6362C6.4388 23.4369 7.99749 22.5401 9.68594 22.005C11.3744 21.4699 13.1542 21.3087 14.9078 21.5321C16.6614 21.7554 18.3489 22.3582 19.8589 23.3006C21.3689 24.243 22.667 25.5036 23.6674 26.9991H26.7525V13.8051V13.8023ZM17.5139 18.2069C16.9743 18.7662 16.3288 19.2062 15.6172 19.4996C14.9056 19.793 14.1431 19.9337 13.3765 19.913C12.6096 19.934 11.8465 19.7934 11.1345 19.4999C10.4224 19.2065 9.77646 18.7665 9.23636 18.2069C8.12862 17.0695 7.57475 15.6013 7.57475 13.8023C7.57475 12.0033 8.12862 10.5341 9.23636 9.39477C9.77646 8.83522 10.4224 8.39517 11.1345 8.10175C11.8465 7.80832 12.6096 7.66773 13.3765 7.68865C14.1431 7.66796 14.9056 7.80866 15.6172 8.10208C16.3288 8.39551 16.9743 8.83544 17.5139 9.39477C18.6217 10.5322 19.1756 12.0014 19.1756 13.8023C19.1756 15.6032 18.6217 17.0714 17.5139 18.2069Z" fill="url(#paint0_linear_4008_58)"/>
<defs>
<linearGradient id="paint0_linear_4008_58" x1="5.71929" y1="25.3982" x2="25.1736" y2="6.45427" gradientUnits="userSpaceOnUse">
<stop stop-color="#DD1B5B"/>
<stop offset="1" stop-color="#EE3041"/>
</linearGradient>
</defs>
</svg>
