<svg width="129" height="42" viewBox="0 0 129 42" fill="none" xmlns="http://www.w3.org/2000/svg">
<g clip-path="url(#clip0_4003_2594)">
<path fill-rule="evenodd" clip-rule="evenodd" d="M33.7648 8.08294C33.3246 7.64688 33.3246 6.94027 33.7648 6.50464C34.2054 6.06857 34.9193 6.06857 35.3595 6.50464C35.8001 6.94027 35.8001 7.64688 35.3595 8.08294C34.9193 8.51857 34.2054 8.51857 33.7648 8.08294ZM20.7133 33.2921C21.7696 33.2921 22.6259 34.1396 22.6259 35.1851C22.6259 36.2305 21.7696 37.078 20.7133 37.078C19.657 37.078 18.8007 36.2305 18.8007 35.1851C18.8002 34.1396 19.657 33.2921 20.7133 33.2921ZM15.7842 35.8917C16.6593 36.7577 16.6593 38.1619 15.7842 39.0284C14.9091 39.8945 13.4899 39.8945 12.6149 39.0284C11.7398 38.1623 11.7398 36.7577 12.6149 35.8917C13.4899 35.0252 14.9091 35.0252 15.7842 35.8917ZM11.931 29.6921C12.6782 30.4311 12.6782 31.63 11.931 32.3694C11.1839 33.1089 9.97302 33.1089 9.22589 32.3694C8.47875 31.6304 8.47875 30.4316 9.22589 29.6921C9.97302 28.9527 11.1839 28.9527 11.931 29.6921ZM7.66131 33.9175C8.10191 34.3531 8.10191 35.0597 7.66131 35.4958C7.22072 35.9314 6.50677 35.9314 6.06661 35.4958C5.62645 35.0602 5.62645 34.3531 6.06661 33.9175C6.5072 33.4814 7.22115 33.4814 7.66131 33.9175ZM20.7133 39.2678C21.336 39.2678 21.8407 39.7674 21.8407 40.3841C21.8407 41.0004 21.336 41.5 20.7133 41.5C20.0906 41.5 19.5858 41.0004 19.5858 40.3841C19.5854 39.7678 20.0901 39.2678 20.7133 39.2678ZM27.8672 34.9793C29.1047 34.9793 30.1081 35.9725 30.1081 37.1973C30.1081 38.4221 29.1047 39.4152 27.8672 39.4152C26.6297 39.4152 25.6262 38.4221 25.6262 37.1973C25.6262 35.9725 26.6292 34.9793 27.8672 34.9793ZM29.4955 29.6921C30.2426 28.9527 31.4535 28.9527 32.2007 29.6921C32.9478 30.4311 32.9478 31.63 32.2007 32.3694C31.4535 33.1089 30.2426 33.1089 29.4955 32.3694C28.7484 31.63 28.7484 30.4311 29.4955 29.6921ZM33.7648 33.9175C34.2054 33.4814 34.9193 33.4814 35.3595 33.9175C35.8001 34.3531 35.8001 35.0597 35.3595 35.4958C34.9189 35.9314 34.205 35.9314 33.7648 35.4958C33.3246 35.0597 33.3246 34.3531 33.7648 33.9175ZM6.58842 28.0805C6.58842 29.3053 5.58496 30.2985 4.34745 30.2985C3.10994 30.2985 2.10648 29.3053 2.10648 28.0805C2.10648 26.8558 3.10994 25.8626 4.34745 25.8626C5.58496 25.8626 6.58842 26.8553 6.58842 28.0805ZM8.29317 21.0002C8.29317 22.0456 7.43687 22.8931 6.38057 22.8931C5.32427 22.8931 4.46797 22.0456 4.46797 21.0002C4.46797 19.9548 5.32427 19.1073 6.38057 19.1073C7.43687 19.1073 8.29317 19.9548 8.29317 21.0002ZM2.25538 21.0002C2.25538 21.6165 1.7506 22.1161 1.12791 22.1161C0.504786 22.1161 0 21.6165 0 21.0002C0 20.3839 0.504786 19.8843 1.12747 19.8843C1.7506 19.8839 2.25538 20.3835 2.25538 21.0002ZM5.66706 16.1218C4.79198 16.9879 3.37325 16.9879 2.49773 16.1218C1.62265 15.2557 1.62265 13.8512 2.49773 12.9851C3.37281 12.119 4.79198 12.119 5.66706 12.9851C6.54214 13.8512 6.54214 15.2557 5.66706 16.1218ZM11.931 12.3083C11.1839 13.0473 9.97302 13.0473 9.22589 12.3083C8.47875 11.5689 8.47875 10.3704 9.22589 9.63099C9.97302 8.89154 11.1839 8.89154 11.931 9.63099C12.6777 10.3704 12.6777 11.5689 11.931 12.3083ZM7.66131 8.08294C7.22072 8.51857 6.50677 8.51857 6.06661 8.08294C5.62645 7.64688 5.62645 6.94027 6.06661 6.50464C6.5072 6.06857 7.22115 6.06857 7.66131 6.50464C8.10191 6.94027 8.10191 7.64688 7.66131 8.08294ZM13.5594 7.02065C12.3219 7.02065 11.3184 6.02752 11.3184 4.80273C11.3184 3.57795 12.3219 2.58481 13.5594 2.58481C14.7969 2.58481 15.8003 3.57795 15.8003 4.80273C15.8003 6.02752 14.7969 7.02065 13.5594 7.02065ZM20.7133 8.70787C19.657 8.70787 18.8007 7.86037 18.8007 6.81494C18.8007 5.76951 19.657 4.92201 20.7133 4.92201C21.7696 4.92201 22.6259 5.76951 22.6259 6.81494C22.6259 7.86037 21.7696 8.70787 20.7133 8.70787ZM20.7133 2.73218C20.0906 2.73218 19.5858 2.23259 19.5858 1.61631C19.5854 0.999594 20.0901 0.5 20.7133 0.5C21.336 0.5 21.8407 0.999594 21.8407 1.61631C21.8407 2.23259 21.336 2.73218 20.7133 2.73218ZM25.6419 6.10877C24.7668 5.24269 24.7668 3.83812 25.6419 2.97204C26.517 2.10596 27.9362 2.10596 28.8113 2.97204C29.6863 3.83812 29.6863 5.24269 28.8113 6.10877C27.9362 6.97484 26.5174 6.97484 25.6419 6.10877ZM29.4955 12.3083C28.7484 11.5689 28.7484 10.3704 29.4955 9.63099C30.2426 8.89154 31.4535 8.89154 32.2007 9.63099C32.9478 10.3704 32.9478 11.5689 32.2007 12.3083C31.4535 13.0473 30.2422 13.0473 29.4955 12.3083Z" fill="#5CD1CB"/>
<path fill-rule="evenodd" clip-rule="evenodd" d="M129 8.21777V11.3848H122.839V28.9371H119.43V11.3852H113.269V8.21821H129V8.21777ZM20.3567 29.5815C17.9498 29.5815 15.928 28.7724 14.2931 27.1539C12.6578 25.5359 11.8408 23.531 11.8408 21.1376C11.8408 18.746 12.6578 16.745 14.2931 15.1369C15.928 13.5288 17.9594 12.7245 20.3873 12.7245C22.3732 12.7245 24.098 13.2807 25.5631 14.3927C27.0272 15.5051 27.98 16.984 28.4219 18.8303H25.1116C24.6902 17.9175 24.0587 17.1971 23.2155 16.6711C22.3732 16.1456 21.4204 15.882 20.3571 15.882C19.4139 15.882 18.5519 16.1102 17.7694 16.5665C16.9869 17.0238 16.3704 17.6539 15.9188 18.4582C15.4678 19.2624 15.242 20.1605 15.242 21.1532C15.242 22.6425 15.7337 23.8932 16.7162 24.9058C17.6991 25.9184 18.9131 26.4244 20.3576 26.4244C21.4208 26.4244 22.3688 26.1569 23.2016 25.6202C24.0334 25.0843 24.671 24.3202 25.112 23.3275H28.4822C28.0206 25.2135 27.053 26.7278 25.5783 27.8692C24.1037 29.011 22.3627 29.5815 20.3567 29.5815ZM51.0364 21.2124C51.0364 23.5751 50.2491 25.5311 48.6745 27.0796C47.099 28.6281 45.0982 29.4622 42.6708 29.5815H39.4809C37.0535 29.4622 35.0523 28.6281 33.4772 27.0796C31.9026 25.5311 31.1153 23.5755 31.1153 21.2124C31.1153 18.8497 31.907 16.8742 33.4925 15.2856C35.0772 13.6973 37.0732 12.8429 39.4809 12.7241H42.6708C45.0781 12.8429 47.0746 13.6917 48.6592 15.2704C50.2439 16.8496 51.0364 18.8298 51.0364 21.2124ZM34.396 21.1822C34.396 22.652 34.8719 23.8828 35.8252 24.8755C36.778 25.8687 38.0067 26.4145 39.5115 26.5135V15.7921C38.0067 15.8915 36.778 16.4468 35.8252 17.4594C34.8719 18.472 34.396 19.7136 34.396 21.1822ZM42.6411 26.5135C44.1458 26.4145 45.3742 25.8687 46.3274 24.8755C47.2798 23.8828 47.7566 22.652 47.7566 21.1822C47.7566 19.7136 47.275 18.472 46.3126 17.4594C45.3497 16.4468 44.1262 15.8915 42.6415 15.7921L42.6411 26.5135ZM70.024 21.1822C70.024 21.4799 70.0039 21.8477 69.9642 22.2842H56.7838C56.9843 23.5751 57.531 24.5976 58.424 25.3522C59.3161 26.1068 60.4252 26.4836 61.7492 26.4836C62.3906 26.4836 62.9928 26.3899 63.5548 26.201C64.1159 26.0126 64.6128 25.7442 65.0443 25.3967C65.4752 25.0493 65.8311 24.6275 66.1128 24.1309H69.6332C68.9908 25.8388 67.9682 27.1734 66.5639 28.1367C65.1591 29.0996 63.5552 29.5815 61.7492 29.5815C59.361 29.5815 57.3703 28.7772 55.776 27.1691C54.1809 25.5609 53.3835 23.5557 53.3835 21.1528C53.3835 18.7507 54.1809 16.745 55.776 15.1369C57.3703 13.5288 59.361 12.7245 61.7492 12.7245C63.374 12.7245 64.8185 13.1074 66.0822 13.8711C67.3464 14.636 68.3193 15.6581 69.0013 16.9391C69.6825 18.2192 70.024 19.6341 70.024 21.1822ZM61.7487 15.7026C60.5047 15.7026 59.4466 16.0501 58.5737 16.7446C57.7013 17.44 57.124 18.3933 56.8437 19.6039H66.6831C66.4822 18.7901 66.1516 18.0899 65.6905 17.5039C65.2285 16.9183 64.6617 16.4719 63.9897 16.1637C63.3186 15.8569 62.571 15.7026 61.7487 15.7026ZM81.1861 12.7241C82.7908 12.7241 84.2353 13.0867 85.5195 13.8114C86.8033 14.5362 87.8064 15.5436 88.5282 16.834C89.2509 18.125 89.6115 19.5641 89.6115 21.1523C89.6115 23.5751 88.8142 25.5856 87.2191 27.1838C85.6239 28.7819 83.6126 29.581 81.1856 29.581C79.0992 29.581 77.3041 28.9358 75.7994 27.6453V34.9711H72.4589V20.6575C72.4597 17.0614 75.2963 12.7241 81.1861 12.7241ZM77.1238 24.92C78.1268 25.9227 79.3957 26.424 80.9306 26.424C82.4655 26.424 83.734 25.9231 84.7375 24.92C85.7405 23.9178 86.2422 22.6615 86.2422 21.1523C86.2422 19.6436 85.7405 18.3877 84.7375 17.3851C83.734 16.3829 82.4703 15.8811 80.9459 15.8811C79.9424 15.8811 79.0298 16.1093 78.2076 16.5657C77.3849 17.0229 76.7482 17.653 76.2971 18.4573C75.8456 19.2616 75.6199 20.1596 75.6199 21.1523C75.6194 22.6619 76.1203 23.9178 77.1238 24.92ZM107.467 8.21777H109.95V28.9371H106.54V14.5824L95.5646 28.9375H93.1721V8.21777H96.6113V22.4255L107.467 8.21777Z" fill="#EBECEC"/>
</g>
<defs>
<clipPath id="clip0_4003_2594">
<rect width="129" height="41" fill="white" transform="translate(0 0.5)"/>
</clipPath>
</defs>
</svg>
