<svg width="17" height="18" viewBox="0 0 17 18" fill="none" xmlns="http://www.w3.org/2000/svg">
<g clip-path="url(#clip0_4003_2602)">
<path d="M16.5974 15.0408L12.689 11.1321C13.3763 10.0397 13.7401 8.77497 13.7385 7.48433C13.7385 3.69041 10.6629 0.615234 6.8691 0.615234C3.07532 0.615234 0 3.69041 0 7.48433C0 11.2784 3.07518 14.3533 6.8691 14.3533C8.27229 14.3551 9.64207 13.9251 10.7925 13.1218L14.6544 16.9839C14.782 17.1115 14.9334 17.2127 15.1001 17.2816C15.2668 17.3505 15.4455 17.3858 15.6259 17.3855C15.8064 17.3858 15.9851 17.3505 16.1519 17.2816C16.3187 17.2127 16.4702 17.1115 16.5978 16.9839C16.8554 16.7262 17 16.3767 17 16.0123C16.9999 15.6479 16.8551 15.2985 16.5974 15.0408ZM6.8691 12.1278C4.30485 12.1278 2.22592 10.049 2.22592 7.48462C2.22592 4.92023 4.30485 2.84129 6.8691 2.84129C9.43349 2.84129 11.5123 4.92023 11.5123 7.48462C11.5123 10.049 9.43349 12.1278 6.8691 12.1278Z" fill="white"/>
</g>
<defs>
<clipPath id="clip0_4003_2602">
<rect width="17" height="17" fill="white" transform="translate(0 0.5)"/>
</clipPath>
</defs>
</svg>
